<svg xmlns="http://www.w3.org/2000/svg" xmlns:xlink="http://www.w3.org/1999/xlink" viewBox="0,0,256,256" width="64px" height="64px" fill-rule="nonzero"><g transform=""><g fill="#ff0000" fill-rule="nonzero" stroke="none" stroke-width="1" stroke-linecap="butt" stroke-linejoin="miter" stroke-miterlimit="10" stroke-dasharray="" stroke-dashoffset="0" font-family="none" font-weight="none" font-size="none" text-anchor="none" style="mix-blend-mode: normal"><g transform="scale(2,2)"><path d="M64,6c-32,0 -58,26 -58,58c0,32 26,58 58,58c32,0 58,-26 58,-58c0,-32 -26,-58 -58,-58zM64,12c28.7,0 52,23.3 52,52c0,28.7 -23.3,52 -52,52c-28.7,0 -52,-23.3 -52,-52c0,-28.7 23.3,-52 52,-52zM85.03711,48.94922c-0.7625,0.025 -1.53672,0.35117 -2.13672,0.95117l-20.90039,21.69922l-10.90039,-11.69922c-1.1,-1.2 -2.99922,-1.30117 -4.19922,-0.20117c-1.2,1.1 -1.30117,3.00117 -0.20117,4.20117l13.10156,14.09961c0.6,0.6 1.29922,1 2.19922,1c0.8,0 1.59922,-0.30039 2.19922,-0.90039l23,-24.09961c1.1,-1.2 1.10039,-3.09922 -0.09961,-4.19922c-0.55,-0.6 -1.3,-0.87656 -2.0625,-0.85156z"></path></g></g></g></svg>